<svg id="SvgjsSvg1001" width="288" height="288" xmlns="http://www.w3.org/2000/svg" version="1.1" xmlns:xlink="http://www.w3.org/1999/xlink" xmlns:svgjs="http://svgjs.com/svgjs"><circle id="SvgjsCircle1032" r="144" cx="144" cy="144" transform="matrix(0.9500000476837158,0,0,0.9500000476837158,7.199993133544922,7.199993133544922)"></circle><defs id="SvgjsDefs1002"></defs><g id="SvgjsG1008" transform="matrix(0.9099999666213989,0,0,0.9099999666213989,12.960004806518555,12.960004806518555)"><!--?xml version="1.0" encoding="UTF-8"?--><svg xmlns="http://www.w3.org/2000/svg" xmlns:xlink="http://www.w3.org/1999/xlink" version="1.1" id="Layer_1" x="0px" y="0px" viewBox="0 0 24 24" style="enable-background:new 0 0 24 24;" xml:space="preserve" width="288" height="288">
<g fill="#000000" class="color000 svgShape" style="--darkreader-inline-fill:#000000;" data-darkreader-inline-fill="">
	<path style="--darkreader-inline-fill:#181a1b;" d="M21,8.5c0-2.77-2.085-6.082-7.901-6.457c-0.344-0.693-0.796-0.95-0.875-0.99   C12.154,1.019,12.077,1,12,1C9.285,1,4,2.588,4,5.5v6.715c-0.882,0.577-1,1.562-1,2.285c0,0.958,0.889,3.104,2.149,3.452   c0.013,0.031,0.026,0.064,0.04,0.099C5.734,19.404,7.183,23,12,23c0.189,0,0.354-0.105,0.438-0.26C12.784,22.873,13.191,23,13.5,23   c0.771,0,3-1.179,3-3c0-0.602,0.098-2,1-2c2.066,0,2.5-1.359,2.5-2.5c0-1.024-0.214-1.649-0.399-1.999   C20.032,12.812,21,10.986,21,8.5z" fill="#ffffff" class="colorrgb486066 svgShape" data-darkreader-inline-fill=""></path>
	<path style="--darkreader-inline-fill:#1b4902;" d="M11.067,18.756l0.6-0.506l-0.658-1.661L12,14.045L11.333,13l0.458-1.417l-0.208-1.417L12,9   c-1.62,0-2.505-0.908-3.216-1.638C8.263,6.827,7.923,6.5,7.5,6.5c-0.918,0-1.5,2.813-1.5,4c0,1.173-1.029,2.236-1.146,2.354   c-0.042,0.042-0.093,0.073-0.145,0.097l0.002,0.004C4.341,13.124,4,13.43,4,14.5C4,15.265,4.872,17,5.5,17   c0.192,0,0.367,0.11,0.45,0.283c0.047,0.096,0.102,0.23,0.167,0.395c0.499,1.239,1.641,4.074,5.383,4.307L11,20L11.067,18.756z" fill="#e5fed7" class="colorrgb254232215 svgShape" data-darkreader-inline-fill=""></path>
	<path style="--darkreader-inline-fill:#27292b;" d="M18.6,13.201c0.014-0.02,1.4-1.917,1.4-4.701c0-2.385-1.752-4.998-6.584-5.433   C13.464,3.345,13.5,3.646,13.5,4c0,0.099-0.029,0.195-0.084,0.277l-0.779,1.168C13.015,5.866,13.5,6.504,13.5,7   c0,0.639-0.802,1.509-1.146,1.854C12.26,8.947,12.133,9,12,9l-0.417,1.167l0.208,1.417L11.333,13L12,14.045l-0.992,2.544   l0.658,1.661l-0.6,0.506L11,20l0.5,1.984l0,0c0.005-0.167,0.094-0.321,0.237-0.409c0.146-0.092,0.332-0.1,0.486-0.022   C12.585,21.733,13.24,22,13.5,22c0.341-0.021,2-0.875,2-2c0-1.879,0.748-3,2-3c0.779,0,1.5-0.182,1.5-1.5   c0-1.223-0.362-1.655-0.365-1.659C18.481,13.664,18.46,13.389,18.6,13.201z" fill="#cccccc" class="colorrgb204204204 svgShape" data-darkreader-inline-fill=""></path>
	<path style="opacity: 0.2; --darkreader-inline-fill:#181a1b;" d="M6.023,17.24c-0.065-0.164-0.12-0.299-0.167-0.395   c-0.083-0.173-0.258-0.283-0.45-0.283c-0.496,0-1.138-1.078-1.388-1.91C4.11,15.47,4.909,17,5.5,17c0.192,0,0.367,0.11,0.45,0.283   c0.047,0.096,0.102,0.23,0.167,0.395c0.499,1.239,1.641,4.074,5.383,4.307l-0.111-0.439C7.661,21.305,6.522,18.478,6.023,17.24z" fill="#ffffff" class="colorrgb255255255 svgShape" data-darkreader-inline-fill=""></path>
	<path style="opacity: 0.1; --darkreader-inline-fill:#000000;" d="M19.839,7.283c0.043,0.26,0.068,0.521,0.068,0.779   c0,2.784-1.387,4.682-1.4,4.701c-0.133,0.178-0.116,0.433,0.017,0.61c0.015-0.061,0.038-0.12,0.077-0.172   c0.014-0.02,1.4-1.917,1.4-4.701C20,8.097,19.945,7.688,19.839,7.283z" fill="#000000" class="color000 svgShape" data-darkreader-inline-fill=""></path>
	<path style="opacity: 0.1; --darkreader-inline-fill:#000000;" d="M18.906,15.063c0,1.318-0.721,1.5-1.5,1.5c-1.252,0-2,1.121-2,3   c0,1.125-1.659,1.979-2,2c-0.26,0-0.915-0.267-1.276-0.447c-0.154-0.077-0.34-0.069-0.486,0.022   c-0.144,0.088-0.232,0.242-0.237,0.409l0,0l-0.403-1.601L11,20l0.5,1.984l0,0c0.005-0.167,0.094-0.321,0.237-0.409   c0.146-0.092,0.332-0.1,0.486-0.022C12.585,21.733,13.24,22,13.5,22c0.341-0.021,2-0.875,2-2c0-1.879,0.748-3,2-3   c0.779,0,1.5-0.182,1.5-1.5c0-0.527-0.068-0.899-0.145-1.162C18.885,14.542,18.906,14.779,18.906,15.063z" fill="#000000" class="color000 svgShape" data-darkreader-inline-fill=""></path>
	<path style="--darkreader-inline-fill:#181a1b;" d="M5,5.5c0-2.015,4.358-3.441,6.848-3.498c0.186,0.157,0.617,0.65,0.65,1.85l-0.914,1.371   c-0.132,0.198-0.105,0.462,0.063,0.631c0.424,0.425,0.831,0.976,0.854,1.138c-0.02,0.159-0.34,0.606-0.706,1.002   c-1.069-0.073-1.691-0.711-2.294-1.329c-0.558-0.572-1.135-1.164-2-1.164c-2.065,0-2.5,4.178-2.5,5L5,5.5L5,5.5z" fill="#ffffff" class="colorrgb486066 svgShape" data-darkreader-inline-fill=""></path>
	<path style="opacity: 0.2; --darkreader-inline-fill:#181a1b;" d="M5.563,6.063c0-1.972,4.17-3.377,6.682-3.489   c-0.139-0.315-0.301-0.49-0.397-0.572C9.358,2.059,5,3.485,5,5.5v5c0-0.441,0.128-1.846,0.563-3.056V6.063z" fill="#ffffff" class="colorrgb255255255 svgShape" data-darkreader-inline-fill=""></path>
	<path style="opacity: 0.2; --darkreader-inline-fill:#181a1b;" d="M19.986,8.736C19.988,8.656,20,8.582,20,8.5   c0-2.385-1.752-4.998-6.584-5.433c0.03,0.17,0.051,0.354,0.065,0.548C18.06,4.049,19.843,6.449,19.986,8.736z" fill="#ffffff" class="colorrgb255255255 svgShape" data-darkreader-inline-fill=""></path>
	<path style="--darkreader-inline-fill:#181a1b;" d="M17.465,11.342c-0.08-0.24-0.322-0.38-0.578-0.331l-3.5,0.737c-0.23,0.049-0.396,0.253-0.396,0.489   c0,0.072,0.034,1.763,3,1.763c1.062,0,1.646-0.173,1.896-0.562c0.153-0.237,0.131-0.489,0.079-0.597L17.465,11.342z" fill="#ffffff" class="colorrgb486066 svgShape" data-darkreader-inline-fill=""></path>
	<path style="--darkreader-inline-fill:#6fe97e;" d="M15.99,13c-0.95,0-1.482-0.198-1.756-0.408l2.423-0.511l0.279,0.831   C16.79,12.953,16.507,13,15.99,13z" fill="#1cb72f" class="colorrgb1832828 svgShape" data-darkreader-inline-fill=""></path>
	
		<linearGradient id="SVGID_1_" gradientUnits="userSpaceOnUse" x1="14.542" y1="12.0684" x2="16.8839" y2="10.9764" gradientTransform="matrix(1 0 0 -1 0 24)">
		<stop offset="0" style="stop-color:#FFFFFF;stop-opacity:0.2"></stop>
		<stop offset="1" style="stop-color:#FFFFFF;stop-opacity:0"></stop>
	</linearGradient>
	<path style="fill:url(#SVGID_1_);" d="M15.99,13c-0.95,0-1.482-0.198-1.756-0.408l2.423-0.511l0.279,0.831   C16.79,12.953,16.507,13,15.99,13z"></path>
	<path style="--darkreader-inline-fill:#181a1b;" d="M11.379,16.985c0.271,0.064,0.539-0.097,0.606-0.364L12,16.561l0.015,0.06   C12.071,16.849,12.275,17,12.5,17c0.04,0,0.081-0.005,0.121-0.015c0.269-0.067,0.431-0.339,0.364-0.606l-0.5-2   c-0.111-0.445-0.859-0.445-0.971,0l-0.5,2C10.948,16.646,11.11,16.918,11.379,16.985z" fill="#ffffff" class="colorrgb486066 svgShape" data-darkreader-inline-fill=""></path>
	<path style="--darkreader-inline-fill:#181a1b;" d="M16,16c-0.804,0-2,0.532-2,2c0,0.633-0.004,0.864-0.51,0.95c-0.026-0.251-0.231-0.45-0.49-0.45   c-0.276,0-0.499,0.223-0.5,0.499C12.345,18.999,12.189,19,12,19c0-0.276-0.224-0.5-0.5-0.5S11,18.724,11,19   c-0.276,0-0.5,0.224-0.5,0.5S10.724,20,11,20c0,0.276,0.224,0.5,0.5,0.5S12,20.276,12,20c0.178,0,0.338-0.001,0.5-0.003V20   c0,0.276,0.224,0.5,0.5,0.5s0.5-0.224,0.5-0.5v-0.058C14.492,19.819,15,19.409,15,18c0-0.912,0.767-0.996,1.003-1   c0.274-0.002,0.497-0.225,0.497-0.5C16.5,16.224,16.276,16,16,16z" fill="#ffffff" class="colorrgb486066 svgShape" data-darkreader-inline-fill=""></path>
	<path style="--darkreader-inline-fill:#181a1b;" d="M9.5,12h-2C7.224,12,7,12.224,7,12.5S7.224,13,7.5,13c0,0.552,0.448,1,1,1s1-0.448,1-1   c0.276,0,0.5-0.224,0.5-0.5S9.776,12,9.5,12z" fill="#ffffff" class="colorrgb486066 svgShape" data-darkreader-inline-fill=""></path>
	
		<linearGradient id="SVGID_2_" gradientUnits="userSpaceOnUse" x1="2.659" y1="16.1553" x2="20.1278" y2="8.0095" gradientTransform="matrix(1 0 0 -1 0 24)">
		<stop offset="0" style="stop-color:#FFFFFF;stop-opacity:0.2"></stop>
		<stop offset="1" style="stop-color:#FFFFFF;stop-opacity:0"></stop>
	</linearGradient>
	<path style="fill:url(#SVGID_2_);" d="M21,8.5c0-2.77-2.085-6.082-7.901-6.457c-0.344-0.693-0.796-0.95-0.875-0.99   C12.154,1.019,12.077,1,12,1C9.285,1,4,2.588,4,5.5v6.715c-0.882,0.577-1,1.562-1,2.285c0,0.958,0.889,3.104,2.149,3.452   c0.013,0.031,0.026,0.064,0.04,0.099C5.734,19.404,7.183,23,12,23c0.189,0,0.354-0.105,0.438-0.26C12.784,22.873,13.191,23,13.5,23   c0.771,0,3-1.179,3-3c0-0.602,0.098-2,1-2c2.066,0,2.5-1.359,2.5-2.5c0-1.024-0.214-1.649-0.399-1.999   C20.032,12.812,21,10.986,21,8.5z"></path>
</g>

	<metadata>
		<rdf:rdf xmlns:rdf="http://www.w3.org/1999/02/22-rdf-syntax-ns#" xmlns:rdfs="http://www.w3.org/2000/01/rdf-schema#" xmlns:dc="http://purl.org/dc/elements/1.1/">
			<rdf:description about="https://iconscout.com/legal#licenses" dc:title="people; avatar; head; arnold; sweizeneger; terminator; robot" dc:description="people; avatar; head; arnold; sweizeneger; terminator; robot" dc:publisher="Iconscout" dc:date="2017-03-22" dc:format="image/svg+xml" dc:language="en">
				<dc:creator>
					<rdf:bag>
						<rdf:li>Alpár - Etele Méder</rdf:li>
					</rdf:bag>
				</dc:creator>
			</rdf:description>
		</rdf:rdf>
    </metadata></svg>
</g></svg>